<svg width="121" height="119" viewBox="0 0 121 119" xmlns="http://www.w3.org/2000/svg"><title>jb</title><desc>Created with Sketch.</desc><defs><linearGradient x1="50%" y1="0%" x2="50%" y2="100%" id="a"><stop stop-color="#FFC800" offset="0%"/><stop stop-color="#F76B1C" offset="100%"/></linearGradient></defs><g fill="none"><path d="M63.5 11.258c-28.3 0-51.242 22.942-51.242 51.242 0 28.3 22.942 51.242 51.242 51.242 28.3 0 51.242-22.942 51.242-51.242 0-28.3-22.942-51.242-51.242-51.242z" stroke="#4A4A4A" stroke-width="6" opacity=".429"/><path d="M64 29.5c-17.949 0-32.5 14.551-32.5 32.5 0 17.949 14.551 32.5 32.5 32.5 17.949 0 32.5-14.551 32.5-32.5 0-17.949-14.551-32.5-32.5-32.5z" fill="url(#a)" opacity=".435"/><path d="M36.949 6.373s2.82 1.41 3.696 3.627" stroke="#fff" stroke-width=".7"/><path stroke="#fff" stroke-width=".7" d="M39 9.728l2.203.986.038-2.714"/><path d="M23.194 32.033c3.575 4.153 8.092 2.166 10.168.378l4.881-4.201-.431-.5c-.286.22-.763.524-1.257.686-.494.162-.848-.035-1.135-.369l-6.432-7.473c-.287-.333-.416-.698-.169-1.147.132-.245.701-.841 1.004-1.102l-.431-.5-4.638 3.992c-2.926 2.518-4.6 6.704-1.56 10.236zm1.775-1.676c-2.348-2.729-2.688-5.576-.02-7.872 1.167-1.005 1.927-.919 2.657-.255l6.876 7.989c-.32.302-.944.865-1.293 1.165-2.547 2.192-5.845 1.732-8.219-1.027zm-9.744 7.735l.65-.327c-.611-1.179-.828-2.043-.112-3.199 1.17-1.887 3.089-1.756 5.282-.397l-3.256 5.253.442.274c1.768 1.096 3.869 1.198 5.344-1.182 1.422-2.295.287-4.905-1.804-6.201-2.295-1.422-4.957-1.379-6.58 1.239-.906 1.462-.794 3.179.034 4.539zm4.124.253l2.21-3.642c1.566 1.041 2.042 2.513 1.368 3.601-.822 1.326-2.354.8-3.578.041zm-6.858 8.233c1.554.584 2.659-.197 3.742-1.542 1.075-1.326 1.546-1.897 2.595-1.503.711.267 1.027.963.661 1.936-.5 1.329-1.729 1.701-2.885 1.48l-.225.599 2.764.889.225-.599-.468-.347c.513-.341.963-1.027 1.237-1.757.654-1.741-.016-3.254-1.439-3.788-1.648-.619-2.861.506-3.667 1.57-.979 1.298-1.602 1.876-2.613 1.496-.936-.352-1.329-1.012-.836-2.323.563-1.498 2.518-1.81 3.531-1.664l.225-.599-3.068-1.046-.239.637.529.412c-.457.192-1.26 1.022-1.605 1.939-.661 1.76-.166 3.57 1.537 4.21zm10.313 7.331c.122-.649-.345-1.306-1.013-1.432-.649-.122-1.302.325-1.424.974-.133.708.357 1.349 1.045 1.478.629.118 1.256-.293 1.392-1.021zm-14.339-.916l.609.114c.086-.35.205-.552.379-.824.204-.328.552-.446.984-.365l7.352 1.38.163-.112.411-3.382-.59-.111c-.086.35-.331.894-.532 1.101-.275.274-.662.384-1.082.346l-5.504-1.033c-.432-.081-.717-.297-.765-.693-.027-.29-.002-.53.044-.887l-.609-.114-.86 4.58zm7.246 12.364c.559.031 1.004-.406 1.03-.885.047-.859-.068-1.326-.487-2.09.011-.2.671-1.285.746-2.663.108-1.977-.923-3.636-2.78-3.737-1.198-.065-2.099.667-2.747 1.893l-.12-.007c-.224-.673-.634-1.597-1.612-1.65-1.158-.063-1.576.976-1.858 1.741l-.14-.008c.051-2.04-.88-2.952-2.019-3.014-1.538-.084-2.562 1.062-2.734 4.217-.187 3.435 1.184 5.092 3.041 5.193 1.717.094 2.751-1.232 2.875-2.407.043-.418.19-1.652.242-2.23.093-.976.117-2.137 1.115-2.082.479.026.718.42.821.746l-.063 1.158c-.089 1.638.954 3.437 2.711 3.533.599.033 1.393-.204 1.939-.655l.06.003c.203.312.328.599.292 1.258-.819-.045-1.209.134-1.245.793-.029.539.354.861.933.892zm-1.794-3.796c-1.218-.066-2.248-.643-2.184-1.822.054-.999 1.069-1.604 2.427-1.53 1.258.069 2.297.486 2.227 1.764-.069 1.258-1.212 1.656-2.47 1.588zm-8.116.784c-1.518-.083-2.175-1.26-2.069-3.197.121-2.217 1.082-2.945 1.881-2.902 1.158.063 1.728.635 1.93 2.068-.098 1.797-.225 2.652-.309 3.088-.331.923-.974.968-1.434.943zm3.271 15.393l.613-.095c-.035-.359-.012-.605.063-.9.103-.38.356-.581.79-.648l4.586-.708c1.878-.29 2.992-1.332 2.708-3.17-.262-1.7-1.268-2.314-2.115-2.952l-.006-.04 1.344-.207.117-.16-.706-3.129-.593.092c.035.359.014.747-.107 1.008-.169.35-.556.592-.965.695l-5.534.854c-.435.067-.776-.042-.952-.399-.122-.265-.178-.499-.253-.851l-.613.095.72 4.665.613-.095c-.032-.339-.019-.645.074-.963.103-.38.352-.601.787-.668l5.179-.799c.488.147 1.562.811 1.785 2.254.131.85-.498 1.757-1.862 1.967l-4.566.705c-.435.067-.776-.042-.952-.399-.122-.265-.187-.558-.262-.911l-.613.095.72 4.665zm6.338 9.33l.115-.718c-1.313-.194-2.141-.523-2.66-1.78-.846-2.052.382-3.532 2.767-4.516l2.356 5.713.481-.198c1.923-.793 3.235-2.437 2.168-5.026-1.029-2.496-3.81-3.102-6.084-2.164-2.496 1.029-4.018 3.215-2.844 6.062.656 1.59 2.114 2.503 3.701 2.627zm2.604-3.169l-1.661-3.923c1.761-.661 3.233-.187 3.721.997.595 1.442-.729 2.377-2.06 2.926zm7.609 7.707c.633-.421.766-1.231.356-1.847-.466-.699-1.414-1.221-2.806-1.327l-.022-.033 1.132-.754.039-.194-1.957-2.541-.499.333c.183.311.327.671.327.96-.006.388-.256.771-.583 1.037l-4.661 3.104c-.366.244-.721.288-1.032.038-.222-.189-.371-.377-.588-.666l-.516.344 2.816 4.228.516-.344c-.194-.327-.466-.843-.538-1.204-.083-.377.067-.693.433-.937l4.395-2.927c.499-.044 1.714.084 2.279.933-.094.039-.46.138-.61.238-.566.377-.588.848-.234 1.381.377.566 1.137.588 1.753.178zm17.821 8.552c-1.287-.943-2.509-1.035-3.172-.13-.523.714-.279 1.531.501 2.103.764.56 1.645.593 2.15-.096.304-.415.35-1.07-.031-1.682.136.023.327.112.542.27.955.7 1.455 2.036.786 2.95-.621.847-1.859.603-3.792-.189-1.006-.316-2.214-.844-3.04-1.181-2.699-1.263-4.8-1.425-6.09.335-1.089 1.486-.43 3.041.932 4.039 1.328.973 2.761 1.283 3.539.22.511-.697.356-1.513-.466-2.115-.772-.566-1.66-.591-2.183.123-.389.531-.383 1.149.048 1.745-.193.037-.584-.16-.809-.325-.863-.633-1.46-1.874-.839-2.721.627-.855 1.921-.532 3.953.37.622.213 1.664.62 2.491.919.79 1.447.082 2.587-.295 3.102-1.424 1.943-4.58 1.2-6.855-.468-3.03-2.221-4.178-4.695-2.535-6.937 1.04-1.42 2.357-1.667 3.816-1.428.125.334.381.943.771 1.229.274.201.579.22.743-.004.201-.274.104-.613-.302-.911-.232-.17-.603-.378-1.052-.567-.085-.981.236-1.716.607-2.222 1.095-1.494 2.569-1.538 3.756-.668.498.365.841.82.902 1.12-.745-.342-1.562-.149-1.982.423-.517.706-.208 1.468.464 1.961.697.511 1.626.515 2.137-.182.493-.673.315-1.492-.011-2.127-.263-.512-.641-1.006-1.513-1.645-1.71-1.253-3.935-1.735-5.006-.274-.761 1.038-.413 2.339.356 3.554-1.133-.473-4.324-1.344-6.186 1.197-1.917 2.615-.612 6.06 3.149 8.816 3.52 2.58 7.184 2.508 8.924.134.937-1.279 1.172-2.766.468-3.983l.395.123c2.44 1.111 4.391 1.252 5.675-.499 1.113-1.519.638-3.221-.948-4.383zm13.292 14.091c.508-2.058-.471-3.103-1.949-4.291-.773-.623-1.541-1.019-2.363-1.777-.924-.846-1.33-1.626-1.052-2.752.369-1.495 1.819-1.529 2.382-1.39 2.427.598 2.812 2.465 3.047 4.851l.621.153 1.038-4.626-.66-.163-.885.75c-.55-.692-1.644-1.435-2.654-1.684-2.214-.546-4.359.553-4.867 2.611-.426 1.728.204 3.016 1.536 4.045.968.754 1.498 1.111 2.494 1.83 1.05.753 1.461 1.843 1.203 2.892-.345 1.398-1.235 2.167-2.963 1.741-2.408-.594-3.055-2.813-3.344-5.068l-.641-.158-1.032 4.772.66.163.905-.745c.468.61 1.469 1.392 3.042 1.78 2.505.618 4.897-.564 5.482-2.933zm11.105-.749c.038-2.72-1.693-4.804-4.493-4.843-2.8-.039-4.688 1.955-4.728 4.855-.042 3 2.052 4.889 4.452 4.923 3.02.042 4.731-2.214 4.769-4.934zm-2.02-.008c-.033 2.34-.84 4.289-2.62 4.264-1.88-.026-2.592-2.056-2.559-4.376.026-1.86.597-4.072 2.677-4.043 1.94.027 2.531 2.115 2.502 4.155zm12.486.534l-.687-.269c-.476 1.28-1.083 2.014-2.338 2.267-1.764.356-3.199-1.089-3.646-3.304-.597-2.96.487-4.26 1.663-4.498.725-.146 1.188-.077 1.401.472.075.372-.199.428-.033 1.251.154.765.904.838 1.296.759.745-.15 1.015-.633.845-1.476-.245-1.215-1.525-2.1-3.604-1.68-2.745.554-4.031 3.18-3.532 5.65.558 2.764 2.42 4.51 5.341 3.921 1.608-.324 2.809-1.648 3.293-3.093zm1.317-12.501c-.242-.593-.927-.896-1.612-.617-.611.249-.911.998-.654 1.627.249.611.979.918 1.59.669.667-.272.94-1.031.676-1.68zm5.41 11.968l-.234-.574c-.341.117-.575.126-.898.129-.386.006-.674-.222-.84-.629l-2.825-6.926-.183-.077-3.065 1.488.227.556c.341-.117.931-.207 1.213-.149.379.083.682.348.878.722l2.115 5.185c.166.407.139.764-.168 1.019-.229.18-.444.289-.77.443l.234.574 4.315-1.76zm9.489-7.491l-.556.317c.349.653.569 1.402.118 1.66-.573.327-1.131-.207-1.25-.415-.327-.573-1.3-2.482-2.192-4.045-1.328-2.328-2.792-1.907-4.512-.926-1.32.753-2.391 2.469-1.786 3.529.268.469.744.819 1.317.492.625-.357.79-.957.572-1.339-.218-.382-.622-.727-.771-.988.057-.263.335-.744.891-1.061 1.442-.822 2.324.562 2.502.875l.446.782c-.512.798-1.564 1.859-2.337 2.806-.68.826-1.217 1.822-.365 3.316.654 1.147 1.907 1.445 3.105.761 1.042-.595 1.73-1.609 1.94-2.695l.052-.03c.734.641 1.376.758 2.193.292 1.112-.634 1.477-1.649.633-3.331zm-4.913-.449l1.575 2.923c-.139.724-.329 1.362-1.232 1.877-.747.426-1.427.284-1.942-.619-.803-1.407.158-2.669 1.598-4.181zm11.013-2.137l-.41-.465c-.283.223-.488.324-.805.417-.376.118-.709.012-1-.318l-8.628-9.777-.198-.012-2.569 2.56.397.45c.283-.223.989-.633 1.275-.671.386-.047.855.153 1.159.497l7.278 8.248c.291.33.383.676.177 1.017-.157.245-.324.419-.58.672l.41.465 3.494-3.083zm10.009-18.413l-.401.574c.377.508 1.203 2.085 1.368 2.932.135.68-.791 1.936-1.387 2.788-1.157 1.656-1.511 1.848-2.855.909l-3.361-2.348.916-1.312c.619-.885 1.092-.969 1.47-1.022.351-.048 1.365.246 1.863.545l.424-.607-4.574-3.196-.424.607c.392.347.997 1.087 1.071 1.505.059.334.188.814-.454 1.732l-.916 1.312-4.476-3.127 1.237-1.771c.367-.525.692-.956 1.016-1.315.591-.636 2.411-.658 3.259-.334l.424-.607-2.705-1.89-6.311 9.034.541.378c.223-.284.835-.881 1.184-1.101.45-.295.798-.199 1.158.053l8.05 5.624c.361.252.576.573.448 1.069-.067.27-.535 1.115-.725 1.421l.541.378 6.781-9.706-3.163-2.527zm7.375-10.279l-.584-.209c-.14.332-.278.538-.485.761-.272.285-.59.341-1.004.193l-4.368-1.564c-1.789-.64-3.265-.256-3.892 1.496-.58 1.619.011 2.638.452 3.603l-.013.038-1.28-.458-.179.085-.872 3.087.565.202c.14-.332.344-.663.575-.835.315-.227.771-.255 1.18-.151l5.272 1.888c.414.148.662.407.646.805-.019.291-.081.523-.184.869l.584.209 1.591-4.444-.584-.209c-.133.313-.291.576-.524.811-.272.285-.596.36-1.011.212l-4.933-1.766c-.359-.362-.986-1.458-.494-2.832.29-.81 1.275-1.307 2.574-.841l4.35 1.557c.414.148.662.407.646.805-.019.291-.101.58-.204.925l.584.209 1.591-4.444zm-1.678-9.279l-.071.676c.747.159 1.487.398 1.397 1.253-.115 1.094-.845 1.339-1.978 1.22l-5.47-.575.28-2.665-.895-.094-.282 2.685-2.884-.303-.182 1.73 2.884.303-.199 1.89.895.094.195-1.85 5.728.602c1.77.186 2.809-.509 2.98-2.14.167-1.591-.94-2.532-2.398-2.826zm-5.802-8.683c-.759.034-1.291.659-1.258 1.398.038.839.581 1.775 1.719 2.585l.002.04-1.359.062-.134.146.365 3.187.599-.027c.004-.361.066-.744.215-.991.205-.33.617-.528 1.034-.587l5.594-.254c.44-.02.766.125.904.5.093.276.123.515.16.874l.619-.028-.23-5.075-.619.028c-.003.381-.036.963-.161 1.309-.124.366-.415.559-.855.579l-5.275.239c-.45-.22-1.425-.956-1.471-1.975.101.015.466.119.646.111.679-.031.942-.423.913-1.062-.031-.679-.67-1.091-1.409-1.057zm4.038-10.281l-.24.686c1.258.423 2.015.893 2.303 2.222.47 2.17-1 3.409-3.522 3.956l-1.309-6.04-.508.11c-2.033.441-3.615 1.827-3.022 4.564.572 2.639 3.202 3.726 5.606 3.205 2.639-.572 4.523-2.454 3.87-5.464-.364-1.681-1.638-2.837-3.179-3.24zm-3.126 2.643l.942 4.155c-1.85.34-3.215-.388-3.486-1.638-.331-1.525 1.137-2.211 2.545-2.516zm-3.75-12.645c-2.751 1.196-3.807 3.683-2.89 5.793.502 1.156 1.645 1.727 2.287 1.95l.014.081-.954.415-.054.176 1.509 2.92.55-.239c-.125-.338-.233-.837-.182-1.12.074-.381.341-.671.71-.876l9.244-4.019c.404-.175.789-.191 1.051.11.185.225.423.623.585.945l.569-.247-2.145-4.934-.569.247c.125.338.284 1.054.293 1.377.015.386-.217.705-.62.88l-2.825 1.228-.032-.073c.128-.557.114-1.293-.348-2.356-.941-2.164-3.626-3.374-6.194-2.258zm.871 1.653c2.458-1.069 4.233-.597 4.839.797.526 1.211-.028 2.193-.509 2.642l-5.044 2.193c-.705-.217-1.364-.628-1.746-1.509-.805-1.853.681-3.349 2.46-4.123zm-9.399-6.925c-.609.454-.699 1.27-.257 1.863.502.673 1.477 1.144 2.873 1.176l.024.032-1.09.813-.029.196 2.089 2.434.481-.359c-.199-.301-.362-.653-.377-.941-.015-.388.214-.783.527-1.067l4.489-3.348c.353-.263.705-.326 1.028-.093.232.177.391.357.622.634l.497-.371-3.037-4.072-.497.371c.211.317.51.817.601 1.174.103.372-.03.696-.383.959l-4.233 3.157c-.496.071-1.716.007-2.326-.81.092-.044.452-.163.597-.27.545-.407.542-.879.16-1.392-.407-.545-1.167-.527-1.76-.085zm-2.353-10.78l.187.703c1.278-.357 2.169-.394 3.154.543 1.609 1.53 1.089 3.382-.689 5.251l-4.478-4.259-.358.377c-1.434 1.507-1.963 3.543.066 5.473 1.956 1.861 4.743 1.282 6.438-.501 1.861-1.956 2.361-4.572.129-6.695-1.246-1.185-2.95-1.426-4.45-.893zm-1.08 3.98l3.114 2.907c-1.339 1.321-2.877 1.487-3.804.605-1.13-1.075-.302-2.468.69-3.511zm-8.408-12.763l-.333.523c.293.21.463.389.635.641.218.328.203.65-.033 1.022l-2.489 3.916c-1.019 1.604-.969 3.128.601 4.126 1.452.922 2.576.57 3.614.354l.034.021-.729 1.148.043.193 2.819 1.531.322-.506c-.293-.21-.571-.481-.688-.745-.152-.357-.079-.808.113-1.184l3.003-4.726c.236-.371.543-.556.928-.453.279.083.493.194.807.371l.333-.523-3.984-2.531-.333.523c.276.199.497.411.675.69.218.328.22.661-.016 1.032l-2.81 4.423c-.432.27-1.639.641-2.872-.142-.726-.461-.993-1.532-.253-2.696l2.478-3.899c.236-.371.543-.556.928-.453.279.083.543.227.858.403l.333-.523-3.984-2.531zm-11.201-1.455l.464.56c1.011-.86 1.805-1.265 3.092-.826 2.101.716 2.405 2.616 1.572 5.058l-5.849-1.994-.168.492c-.671 1.969-.299 4.039 2.351 4.943 2.556.871 4.844-.821 5.638-3.149.871-2.556.231-5.14-2.684-6.134-1.628-.555-3.276-.06-4.415 1.051zm.664 4.075l4.045 1.337c-.663 1.76-1.991 2.554-3.202 2.141-1.477-.503-1.307-2.115-.843-3.478zm-12.696-7.891l-.079.595c.354.067.709.134.925.324.288.26.405.598.389 1.02l-.957 7.217.12.157 3.501.222.079-.595c-.513-.088-1.046-.179-1.262-.369-.288-.26-.4-.638-.384-1.06l.678-5.115c.313-.382 1.133-1.242 2.58-1.05.853.113 1.472.921 1.29 2.289l-.833 6.285.12.157 3.224.185.079-.595c-.354-.067-.74-.199-.957-.389-.288-.26-.45-.564-.384-1.06l.557-4.203c.247-1.864-.305-3.329-2.149-3.573-1.705-.226-2.524.472-3.377 1.126l-.059-.008.16-1.209-.12-.157-3.142-.195zm-8.54 8.96c.066.757.713 1.263 1.45 1.198.837-.073 1.75-.655 2.51-1.826l.04-.003.119 1.355.152.127 3.169-.498-.052-.598c-.36.011-.746-.035-.999-.174-.338-.191-.554-.594-.63-1.009l-.488-5.579c-.038-.438.093-.771.461-.924.272-.104.509-.145.866-.196l-.054-.618-5.061.443.054.618c.38-.013.963-.004 1.314.106.371.108.576.391.615.83l.46 5.26c-.201.459-.896 1.464-1.912 1.553.011-.101.099-.47.084-.65-.059-.677-.462-.923-1.1-.867-.677.059-1.062.715-.997 1.452z" fill="#fff"/><path d="M75.911 69.488h2.197v.879c.423-.443.785-.742 1.084-.898.319-.163.719-.244 1.201-.244 1.074 0 1.924.469 2.549 1.406.69-.938 1.624-1.406 2.803-1.406 2.142 0 3.213 1.299 3.213 3.896v5.879h-2.207v-5.283c0-.911-.111-1.556-.332-1.934-.228-.384-.602-.576-1.123-.576-.605 0-1.047.228-1.323.684-.277.456-.415 1.188-.415 2.197v4.912h-2.207v-5.254c0-1.693-.488-2.539-1.465-2.539-.618 0-1.069.231-1.353.693-.283.462-.425 1.191-.425 2.188v4.912h-2.197v-9.512z" id="Path" fill="#fff"/><path d="M63.44 74.176c0-1.374.492-2.542 1.475-3.506.983-.964 2.181-1.445 3.594-1.445 1.419 0 2.624.485 3.613 1.455.977.97 1.465 2.161 1.465 3.574 0 1.426-.492 2.62-1.475 3.584-.99.957-2.204 1.436-3.643 1.436-1.426 0-2.62-.488-3.584-1.465-.964-.964-1.445-2.174-1.445-3.633zm2.246.039c0 .951.254 1.702.762 2.256.521.56 1.208.84 2.061.84.859 0 1.546-.277 2.061-.83.514-.553.771-1.292.771-2.217 0-.924-.257-1.663-.771-2.217-.521-.56-1.208-.84-2.061-.84-.84 0-1.52.28-2.041.84-.521.56-.781 1.283-.781 2.168zM51.419 74.176c0-1.374.492-2.542 1.475-3.506.983-.964 2.181-1.445 3.594-1.445 1.419 0 2.624.485 3.613 1.455.977.97 1.465 2.161 1.465 3.574 0 1.426-.492 2.62-1.475 3.584-.99.957-2.204 1.436-3.643 1.436-1.426 0-2.62-.488-3.584-1.465-.964-.964-1.445-2.174-1.445-3.633zm2.246.039c0 .951.254 1.702.762 2.256.521.56 1.208.84 2.061.84.859 0 1.546-.277 2.061-.83.514-.553.771-1.292.771-2.217 0-.924-.257-1.663-.771-2.217-.521-.56-1.208-.84-2.061-.84-.84 0-1.52.28-2.041.84-.521.56-.781 1.283-.781 2.168zM40.462 79v-15.078h2.266c1.009 0 1.813.078 2.412.234.605.156 1.117.42 1.533.791.423.384.758.863 1.006 1.436.254.579.381 1.165.381 1.758 0 1.081-.413 1.995-1.24 2.744.801.273 1.432.752 1.895 1.436.469.677.703 1.465.703 2.363 0 1.178-.417 2.174-1.25 2.988-.501.501-1.064.85-1.689 1.045-.684.189-1.54.283-2.568.283h-3.447zm2.275-2.139h1.406c1.029 0 1.784-.202 2.266-.605.508-.436.762-.99.762-1.66 0-.651-.244-1.198-.732-1.641-.475-.436-1.325-.654-2.549-.654h-1.152v4.561zm0-6.465h.713c.846 0 1.466-.187 1.86-.562.394-.374.591-.926.591-1.655 0-.71-.202-1.248-.605-1.616-.404-.368-.99-.552-1.758-.552h-.801v4.385z" id="Combined-Shape" fill="#fff"/><path id="Path" fill="#fff" d="M90.267 57.232l-4.277-7.744h2.549l2.91 5.469 2.715-5.469h2.48l-7.578 14.688h-2.51zM71.448 49.488h2.197v.879c.423-.443.785-.742 1.084-.898.319-.163.719-.244 1.201-.244 1.074 0 1.924.469 2.549 1.406.69-.938 1.624-1.406 2.803-1.406 2.142 0 3.213 1.299 3.213 3.896v5.879h-2.207v-5.283c0-.911-.111-1.556-.332-1.934-.228-.384-.602-.576-1.123-.576-.605 0-1.047.228-1.323.684-.277.456-.415 1.188-.415 2.197v4.912h-2.207v-5.254c0-1.693-.488-2.539-1.465-2.539-.618 0-1.069.231-1.353.693-.283.462-.425 1.191-.425 2.188v4.912h-2.197v-9.512z"/><path d="M69.046 54.762h-6.816c.059.781.312 1.403.762 1.865.449.456 1.025.684 1.729.684.547 0 .999-.13 1.357-.391.352-.26.432-.251.882-.954l1.823.954c-.286.488-.238.496-.557.845-.319.348-.661.635-1.025.859-.365.225-.758.389-1.182.493-.423.104-.882.156-1.377.156-1.419 0-2.559-.456-3.418-1.367-.859-.918-1.289-2.135-1.289-3.652 0-1.504.417-2.721 1.25-3.652.84-.918 1.953-1.377 3.34-1.377 1.4 0 2.507.446 3.32 1.338.807.885 1.211 2.113 1.211 3.682l-.01.518zm-2.256-1.797c-.306-1.172-1.045-1.758-2.217-1.758-.267 0-.518.041-.752.122-.234.081-.448.199-.64.352-.192.153-.356.337-.493.552-.137.215-.241.459-.313.732h4.414z" id="Combined-Shape" fill="#fff"/><path d="M52.903 49.488h2.197v.85c.404-.423.762-.713 1.074-.869.319-.163.697-.244 1.133-.244.579 0 1.185.189 1.816.566l-1.006 2.012c-.417-.299-.824-.449-1.221-.449-1.198 0-1.797.905-1.797 2.715v4.932h-2.197v-9.512z" id="Path" fill="#fff"/><path d="M50.501 54.762h-6.816c.059.781.312 1.403.762 1.865.449.456 1.025.684 1.729.684.547 0 .999-.13 1.357-.391.352-.26.674-.226 1.123-.929l1.637.929c-.286.488-.293.496-.612.845-.319.348-.661.635-1.025.859-.365.225-.758.389-1.182.493-.423.104-.882.156-1.377.156-1.419 0-2.559-.456-3.418-1.367-.859-.918-1.289-2.135-1.289-3.652 0-1.504.417-2.721 1.25-3.652.84-.918 1.953-1.377 3.34-1.377 1.4 0 2.507.446 3.32 1.338.807.885 1.211 2.113 1.211 3.682l-.01.518zm-2.256-1.797c-.306-1.172-1.045-1.758-2.217-1.758-.267 0-.518.041-.752.122-.234.081-.448.199-.64.352-.192.153-.356.337-.493.552-.137.215-.241.459-.313.732h4.414z" id="Combined-Shape" fill="#fff"/><path d="M38.646 43.922v9.756c0 1.165-.081 2.035-.244 2.607-.163.651-.439 1.201-.83 1.65-.762.892-1.771 1.338-3.027 1.338-.951 0-1.839-.247-2.666-.742l1.113-1.943c.553.371 1.071.557 1.553.557.677 0 1.146-.257 1.406-.771.273-.514.41-1.413.41-2.695v-9.756h2.285z" id="Path" fill="#fff"/><path d="M34.24 5.305h-2.727c.023.313.125.561.305.746.18.182.41.273.691.273.219 0 .4-.052.543-.156.141-.104.301-.297.48-.578l.742.414c-.115.195-.236.363-.363.502-.128.139-.264.254-.41.344-.146.09-.303.156-.473.197-.169.042-.353.063-.551.063-.568 0-1.023-.182-1.367-.547-.344-.367-.516-.854-.516-1.461 0-.602.167-1.089.5-1.461.336-.367.781-.551 1.336-.551.56 0 1.003.178 1.328.535.323.354.484.845.484 1.473l-.004.207zm-.902-.719c-.122-.469-.418-.703-.887-.703-.107 0-.207.016-.301.049s-.179.079-.256.141c-.077.061-.143.135-.197.221-.055.086-.096.184-.125.293h1.766z" id="Combined-Shape" fill="#fff"/><path d="M27.783 3.195h.879v.34c.161-.169.305-.285.43-.348.128-.065.279-.098.453-.098.232 0 .474.076.727.227l-.402.805c-.167-.12-.329-.18-.488-.18-.479 0-.719.362-.719 1.086v1.973h-.879v-3.805z" id="Path" fill="#fff"/><path d="M26.822 5.305h-2.727c.023.313.125.561.305.746.18.182.41.273.691.273.219 0 .4-.052.543-.156.141-.104.301-.297.48-.578l.742.414c-.115.195-.236.363-.363.502-.128.139-.264.254-.41.344-.146.09-.303.156-.473.197-.169.042-.353.063-.551.063-.568 0-1.023-.182-1.367-.547-.344-.367-.516-.854-.516-1.461 0-.602.167-1.089.5-1.461.336-.367.781-.551 1.336-.551.56 0 1.003.178 1.328.535.323.354.484.845.484 1.473l-.004.207zm-.902-.719c-.122-.469-.418-.703-.887-.703-.107 0-.207.016-.301.049s-.179.079-.256.141c-.077.061-.143.135-.197.221-.055.086-.096.184-.125.293h1.766z" fill="#fff"/><path d="M18.971.402h.879v3.109c.313-.281.658-.422 1.035-.422.43 0 .773.139 1.031.418.219.242.328.629.328 1.16v2.332h-.879v-2.25c0-.305-.054-.525-.162-.662-.108-.137-.282-.205-.521-.205-.307 0-.523.095-.648.285-.122.193-.184.523-.184.992v1.84h-.879v-6.598zM13.396.402v4.023l1.238-1.23h1.18l-1.652 1.598 1.773 2.207h-1.141l-1.258-1.605-.141.141v1.465h-.879v-6.598zM11.666 3.359v1.168c-.201-.245-.38-.413-.539-.504-.156-.094-.34-.141-.551-.141-.331 0-.605.116-.824.348-.219.232-.328.522-.328.871 0 .357.105.65.316.879.214.229.486.344.816.344.211 0 .397-.046.559-.137.156-.089.34-.26.551-.516v1.16c-.357.185-.714.277-1.07.277-.589 0-1.081-.19-1.477-.57-.396-.383-.594-.858-.594-1.426s.201-1.047.602-1.438c.401-.391.893-.586 1.477-.586.375 0 .729.09 1.063.27zM6.58 1.613c0-.154.056-.286.168-.398.112-.112.246-.168.402-.168.159 0 .294.056.406.168.112.109.168.243.168.402 0 .159-.056.294-.168.406-.109.112-.243.168-.402.168-.159 0-.294-.056-.406-.168-.112-.112-.168-.249-.168-.41zM7.592 3.195v3.805h-.879v-3.805zM5.6.402v6.598h-.879v-6.598zM3.869 3.359v1.168c-.201-.245-.38-.413-.539-.504-.156-.094-.34-.141-.551-.141-.331 0-.605.116-.824.348-.219.232-.328.522-.328.871 0 .357.105.65.316.879.214.229.486.344.816.344.211 0 .397-.046.559-.137.156-.089.34-.26.551-.516v1.16c-.357.185-.714.277-1.07.277-.589 0-1.081-.19-1.477-.57-.396-.383-.594-.858-.594-1.426s.201-1.047.602-1.438c.401-.391.893-.586 1.477-.586.375 0 .729.09 1.063.27z" fill="#fff"/></g></svg>